<svg width="2319" height="1801" xmlns="http://www.w3.org/2000/svg" xmlns:xlink="http://www.w3.org/1999/xlink" overflow="hidden"><defs><clipPath id="clip0"><rect x="196" y="509" width="2319" height="1801"/></clipPath></defs><g clip-path="url(#clip0)" transform="translate(-196 -509)"><path d="M3.4375-3.2019e-06 3.43784 364.53-3.43716 364.53-3.4375 3.2019e-06ZM13.7503 359.947 0.000360892 387.447-13.7497 359.947Z" fill="#0070C0" transform="matrix(1 0 0 -1 1102.5 1779.95)"/><text font-family="Times New Roman,Times New Roman_MSFontService,sans-serif" font-weight="700" font-size="64" transform="matrix(1 0 0 1 1048.95 1870)">V聞<tspan x="274.471" y="294">L聞</tspan><tspan x="362.541" y="-139">V聞</tspan><tspan x="937.93" y="-875">D, </tspan><tspan font-style="italic" x="1016.35" y="-875">x</tspan><tspan font-size="43" x="1048.43" y="-860">D</tspan><tspan x="1079.33" y="-875">, H</tspan><tspan font-size="43" x="1161.32" y="-860">D</tspan><tspan x="826.375" y="-1124">Q</tspan><tspan font-size="43" x="876.287" y="-1109">C</tspan></text><path d="M1776.5 721.25 1819 721.25 1819 701.5 1858.5 741 1819 780.5 1819 760.75 1776.5 760.75Z" stroke="#0000FF" stroke-width="9.16667" stroke-miterlimit="8" fill="#0000FF" fill-rule="evenodd"/><rect x="1042.5" y="786.5" width="303" height="1167" stroke="#000000" stroke-width="6.875" stroke-linejoin="round" stroke-miterlimit="10" fill="none"/><path d="M196.5 1328.06 1016.83 1328.06 1016.83 1334.94 196.5 1334.94ZM1012.25 1317.75 1039.75 1331.5 1012.25 1345.25Z"/><path d="M707.5 1312.5C707.5 1261.69 744.213 1220.5 789.5 1220.5 834.787 1220.5 871.5 1261.69 871.5 1312.5 871.5 1363.31 834.787 1404.5 789.5 1404.5 744.213 1404.5 707.5 1363.31 707.5 1312.5Z" stroke="#000000" stroke-width="9.16667" stroke-linejoin="round" stroke-miterlimit="10" fill="#FFFFFF" fill-rule="evenodd"/><path d="M3.4608-3.82228 230.945 202.148 224.023 209.793-3.4608 3.82228ZM234.044 191.043 246.595 223.274 213.279 213.976Z" transform="matrix(1 0 0 -1 672 1430.27)"/><path d="M1188.5 1955.5 1188.5 2228.52" stroke="#000000" stroke-width="6.875" stroke-linejoin="round" stroke-miterlimit="10" fill="none" fill-rule="evenodd"/><path d="M1188.5 2221.06 1917.11 2221.06 1917.11 2227.94 1188.5 2227.94ZM1912.53 2210.75 1940.03 2224.5 1912.53 2238.25Z"/><path d="M0 0 0.000360892 137.905" stroke="#000000" stroke-width="6.875" stroke-linejoin="round" stroke-miterlimit="10" fill="none" fill-rule="evenodd" transform="matrix(1 0 0 -1 1652.5 2231.4)"/><path d="M1564.5 1988.5C1564.5 1937.69 1601.44 1896.5 1647 1896.5 1692.56 1896.5 1729.5 1937.69 1729.5 1988.5 1729.5 2039.31 1692.56 2080.5 1647 2080.5 1601.44 2080.5 1564.5 2039.31 1564.5 1988.5Z" stroke="#000000" stroke-width="9.16667" stroke-linejoin="round" stroke-miterlimit="10" fill="#FFFFFF" fill-rule="evenodd"/><path d="M3.4608-3.82228 230.945 202.148 224.023 209.793-3.4608 3.82228ZM234.044 191.043 246.595 223.274 213.279 213.976Z" transform="matrix(1 0 0 -1 1529 2106.27)"/><path d="M0 0 0.000360892 85.3698" stroke="#000000" stroke-width="6.875" stroke-linejoin="round" stroke-miterlimit="10" fill="none" fill-rule="evenodd" transform="matrix(1 0 0 -1 1652.5 1889.87)"/><path d="M3.99318e-06-3.4375 287.755-3.43717 287.755 3.43783-3.99318e-06 3.4375ZM283.171-13.7497 310.671 0.000360892 283.171 13.7503Z" transform="matrix(-1 -8.74228e-08 -8.74228e-08 1 1658.17 1804.5)"/><path d="M3.4375-5.10574e-06 3.43783 220.059-3.43717 220.059-3.4375 5.10574e-06ZM13.7503 215.475 0.000360892 242.975-13.7497 215.475Z" transform="matrix(1 0 0 -1 1188.5 780.475)"/><path d="M1188.5 537.5 1652.33 537.5" stroke="#000000" stroke-width="6.875" stroke-linejoin="round" stroke-miterlimit="10" fill="none" fill-rule="evenodd"/><path d="M1570.5 727.5C1570.5 676.69 1607.21 635.5 1652.5 635.5 1697.79 635.5 1734.5 676.69 1734.5 727.5 1734.5 778.31 1697.79 819.5 1652.5 819.5 1607.21 819.5 1570.5 778.31 1570.5 727.5Z" stroke="#000000" stroke-width="9.16667" stroke-linejoin="round" stroke-miterlimit="10" fill="#FFFFFF" fill-rule="evenodd"/><path d="M3.4608-3.82228 230.945 202.148 224.023 209.793-3.4608 3.82228ZM234.044 191.043 246.595 223.274 213.279 213.976Z" transform="matrix(1 0 0 -1 1535 845.274)"/><path d="M1652.5 537.5 1652.5 636.004" stroke="#000000" stroke-width="6.875" stroke-linejoin="round" stroke-miterlimit="10" fill="none" fill-rule="evenodd"/><path d="M1652.5 832.5 1652.5 981.419" stroke="#000000" stroke-width="6.875" stroke-linejoin="round" stroke-miterlimit="10" fill="none" fill-rule="evenodd"/><path d="M1494.5 983.5 1653.03 983.5" stroke="#000000" stroke-width="6.875" stroke-linejoin="round" stroke-miterlimit="10" fill="none" fill-rule="evenodd"/><path d="M0 0 0.000360892 157.605" stroke="#000000" stroke-width="6.875" stroke-linejoin="round" stroke-miterlimit="10" fill="none" fill-rule="evenodd" transform="matrix(1 0 0 -1 1494.5 984.105)"/><path d="M9.31743e-06-3.4375 110.228-3.4372 110.228 3.4378-9.31743e-06 3.4375ZM105.645-13.7497 133.145 0.000360892 105.645 13.7503Z" transform="matrix(-1 -8.74228e-08 -8.74228e-08 1 1492.64 826.5)"/><path d="M1652.5 980.062 1941.27 980.063 1941.27 986.938 1652.5 986.937ZM1936.69 969.75 1964.19 983.5 1936.69 997.25Z"/><text font-family="Times New Roman,Times New Roman_MSFontService,sans-serif" font-weight="700" font-size="64" transform="matrix(1 0 0 1 243.103 1258)">F, <tspan font-style="italic" x="65.3813" y="0">x</tspan><tspan font-size="43" x="97.4646" y="15">F</tspan><tspan x="119.671" y="0">, H</tspan><tspan font-size="43" x="201.667" y="15">F</tspan><tspan x="493.191" y="-230">Q</tspan><tspan font-size="43" x="543.103" y="-215">F</tspan></text><path d="M754.5 1139.5 772 1139.5 772 1102.5 807 1102.5 807 1139.5 824.5 1139.5 789.5 1174.5Z" stroke="#FF0000" stroke-width="9.16667" stroke-miterlimit="8" fill="#FF0000" fill-rule="evenodd"/><text font-family="Times New Roman,Times New Roman_MSFontService,sans-serif" font-weight="700" font-size="64" transform="matrix(1 0 0 1 1951.66 2236)">W, <tspan font-style="italic" x="90.3605" y="0">x</tspan><tspan font-size="43" x="122.444" y="15">W</tspan><tspan x="161.31" y="0">, H</tspan><tspan font-size="43" x="243.306" y="15">W</tspan><tspan x="-52.8418" y="-243">Q</tspan><tspan font-size="43" x="-2.92932" y="-228">R</tspan></text><path d="M1787.5 1979 1831.5 1916.5 1831.5 1947.75 1875.5 1947.75 1875.5 2010.25 1831.5 2010.25 1831.5 2041.5Z" stroke="#FF0000" stroke-width="9.16667" stroke-linejoin="round" stroke-miterlimit="10" fill="#FF0000" fill-rule="evenodd"/><path d="M1266.94 826.5 1266.94 1184.46 1260.06 1184.46 1260.06 826.5ZM1277.25 1179.88 1263.5 1207.38 1249.75 1179.88Z" fill="#0070C0"/><text font-family="Times New Roman,Times New Roman_MSFontService,sans-serif" font-weight="700" font-size="64" transform="matrix(1 0 0 1 1229.48 1271)">L</text><path d="M3.4375-3.2019e-06 3.43784 364.53-3.43716 364.53-3.4375 3.2019e-06ZM13.7503 359.947 0.000360892 387.447-13.7497 359.947Z" fill="#0070C0" transform="matrix(1 0 0 -1 1094.5 1206.95)"/><text font-family="Times New Roman,Times New Roman_MSFontService,sans-serif" font-weight="700" font-size="64" transform="matrix(1 0 0 1 1047.47 1277)">V</text><path d="M1267.94 1414.5 1267.94 1772.46 1261.06 1772.46 1261.06 1414.5ZM1278.25 1767.88 1264.5 1795.38 1250.75 1767.88Z" fill="#0070C0"/><text font-family="Times New Roman,Times New Roman_MSFontService,sans-serif" font-weight="700" font-size="64" transform="matrix(1 0 0 1 1210.7 1866)">L聞</text></g></svg>